<?xml version="1.0" encoding="UTF-8"?>
<svg width="596px" height="479px" viewBox="0 0 596 479" version="1.1" xmlns="http://www.w3.org/2000/svg" xmlns:xlink="http://www.w3.org/1999/xlink">
    <!-- Generator: Sketch 62 (91390) - https://sketch.com -->
    <title>Artboard</title>
    <desc>Created with Sketch.</desc>
    <g id="Artboard" stroke="none" stroke-width="1" fill="none" fill-rule="evenodd">
        <g id="ic-/-icon-font-/-gbp" transform="translate(94.000000, 35.000000)" fill="#FFFFFF">
            <path d="M194.304688,255 L194.304688,331.5 L372.007812,331.5 L372.007812,408 L42.5,408 L68,331.5 L118.601562,331.5 L118.601562,255 L42.5,255 L68,178.5 L118.601562,178.5 L118.601562,125.90625 C118.601562,108.374912 121.921842,91.9727326 128.5625,76.6992188 C135.203158,61.4257049 144.300723,48.0781821 155.855469,36.65625 C167.410214,25.2343179 180.890548,16.2695638 196.296875,9.76171875 C211.703202,3.25387371 228.171787,0 245.703125,0 C262.968836,0 279.30461,3.12106254 294.710938,9.36328125 C310.117265,15.6055 323.597598,24.3046317 335.152344,35.4609375 C346.707089,46.6172433 355.804654,60.0975772 362.445312,75.9023438 C369.085971,91.7071103 372.40625,109.171779 372.40625,128.296875 L296.304688,128.296875 C296.304688,118.734327 294.976576,110.632846 292.320312,103.992188 C289.664049,97.3515293 286.011742,91.9726768 281.363281,87.8554688 C276.714821,83.7382607 271.269562,80.7500093 265.027344,78.890625 C258.785125,77.0312407 252.210972,76.1015625 245.304687,76.1015625 C238.398403,76.1015625 231.82425,77.3632686 225.582031,79.8867188 C219.339813,82.4101689 213.894554,85.9296649 209.246094,90.4453125 C204.597633,94.9609601 200.945326,100.273407 198.289062,106.382812 C195.632799,112.492218 194.304688,118.999965 194.304688,125.90625 L194.304688,178.5 L270.007812,178.5 L270.007812,255 L194.304688,255 Z" id="icon"></path>
        </g>
    </g>
</svg>