<svg id="Layer_1" data-name="Layer 1" xmlns="http://www.w3.org/2000/svg" viewBox="0 0 372.39 341"><defs><style>.cls-1{fill:#fff;}</style></defs><path class="cls-1" d="M383.7,215.64H197L210.28,247H379.45v41H182.61l-92-218.64H31v-41h87.25l21.28,50.54H403.39ZM155,116.16l25,58.52H350.71l8.52-58.52Zm93.1,224a29.26,29.26,0,1,1-29.26-29.26A28.85,28.85,0,0,1,248.05,340.13Zm133,0a28.85,28.85,0,0,1-29.26,29.26c-16.49,0-28.72-12.77-28.72-29.26s12.23-29.26,28.72-29.26A28.85,28.85,0,0,1,381,340.13Z" transform="translate(-31 -28.39)"/></svg>