<?xml version="1.0" encoding="utf-8"?>
<!-- Generator: Adobe Illustrator 19.2.1, SVG Export Plug-In . SVG Version: 6.00 Build 0)  -->
<svg version="1.1" id="Layer_2" xmlns="http://www.w3.org/2000/svg" xmlns:xlink="http://www.w3.org/1999/xlink" x="0px" y="0px"
	 viewBox="0 0 70 60" style="enable-background:new 0 0 70 60;" xml:space="preserve">
<style type="text/css">
	.st0{fill:#FFFFFF;}
</style>
<path class="st0" d="M29.6,0C13.3,0,0,13.3,0,29.6s13.3,29.6,29.6,29.6C46,59.3,59.3,46,59.3,29.6C59.3,13.3,46,0,29.6,0
	C29.6,0,29.6,0,29.6,0 M29.6,7.4c10.8,0,20.1,7.8,21.9,18.5c-4.9-0.2-9.7-1.2-14.3-2.8c-2.1-1.7-4.8-2.7-7.5-2.8
	c-2.8,0.1-5.4,1.1-7.5,2.8c-4.6,1.6-9.5,2.5-14.3,2.8C9.6,15.2,18.8,7.4,29.6,7.4 M7.7,33.3h10.8C22,33.3,23,37,23,37l2.9,14.5
	C16.6,49.9,9.3,42.6,7.7,33.3 M24.1,29.6c0-3.1,2.5-5.6,5.6-5.6c3.1,0,5.6,2.5,5.6,5.6s-2.5,5.6-5.6,5.6S24.1,32.7,24.1,29.6
	 M33.4,51.5L36.3,37c0,0,1-3.7,4.4-3.7h10.8C50,42.6,42.7,49.9,33.4,51.5"/>
</svg>
